<svg xmlns="http://www.w3.org/2000/svg" width="19" height="24" viewBox="0 0 19 24">
    <path fill="#E1E1E1" fill-rule="nonzero" stroke="#B7B7B7" stroke-width=".5" d="M9.462 1a5.066 5.066 0 0 0-5.077 5.077v3.385A3.395 3.395 0 0 0 1 12.846v6.77A3.395 3.395 0 0 0 4.385 23h10.153a3.395 3.395 0 0 0 3.385-3.385v-6.769a3.395 3.395 0 0 0-3.385-3.384H6.077V6.077c0-1.927 1.458-3.385 3.385-3.385 1.927 0 3.384 1.458 3.384 3.385v.846h1.692v-.846A5.066 5.066 0 0 0 9.462 1zm0 12.692c.932 0 1.692.76 1.692 1.693 0 .591-.337 1.173-.846 1.428v1.956c0 .51-.337.846-.846.846-.51 0-.847-.337-.847-.846v-1.956c-.509-.255-.846-.837-.846-1.428 0-.932.76-1.693 1.693-1.693z"/>
</svg>
