<svg xmlns="http://www.w3.org/2000/svg" xmlns:xlink="http://www.w3.org/1999/xlink" width="79" height="85" viewBox="0 0 79 85">
    <defs>
        <linearGradient id="c" x1="50%" x2="41.849%" y1="97.784%" y2="-16.397%">
            <stop offset="0%" stop-color="#F2F2F2"/>
            <stop offset="100%" stop-color="#FFF"/>
        </linearGradient>
        <path id="b" d="M57 16.25L28.5 0 0 16.25v32.5L28.5 65 57 48.75v-32.5zM37.603 14.05a1.866 1.866 0 0 1-1.856 1.864h-6.903v4.014h5.092a1.86 1.86 0 0 1 1.856 1.864 1.86 1.86 0 0 1-1.856 1.863h-5.092v14.29c.003.066.003.132 0 .198 3.602.952 5.944 4.436 5.479 8.146-.466 3.71-3.596 6.501-7.32 6.526-3.725.025-6.892-2.723-7.407-6.427-.515-3.704 1.78-7.218 5.37-8.219a1.963 1.963 0 0 1-.014-.217V14.147a1.95 1.95 0 0 1 1.947-1.955c.163 0 .325.022.483.063a1.83 1.83 0 0 1 .469-.063h7.902a1.866 1.866 0 0 1 1.856 1.864l-.006-.005z"/>
        <filter id="a" width="163.2%" height="155.4%" x="-31.6%" y="-23.1%" filterUnits="objectBoundingBox">
            <feOffset dy="3" in="SourceAlpha" result="shadowOffsetOuter1"/>
            <feGaussianBlur in="shadowOffsetOuter1" result="shadowBlurOuter1" stdDeviation="5.5"/>
            <feColorMatrix in="shadowBlurOuter1" values="0 0 0 0 0.101960784 0 0 0 0 0.501960784 0 0 0 0 0.580392157 0 0 0 1 0"/>
        </filter>
        <filter id="d" width="145.6%" height="140%" x="-22.8%" y="-15.4%" filterUnits="objectBoundingBox">
            <feGaussianBlur in="SourceAlpha" result="shadowBlurInner1" stdDeviation="1.5"/>
            <feOffset dy="1" in="shadowBlurInner1" result="shadowOffsetInner1"/>
            <feComposite in="shadowOffsetInner1" in2="SourceAlpha" k2="-1" k3="1" operator="arithmetic" result="shadowInnerInner1"/>
            <feColorMatrix in="shadowInnerInner1" values="0 0 0 0 0.803465136 0 0 0 0 0.803465136 0 0 0 0 0.803465136 0 0 0 0.5 0"/>
        </filter>
    </defs>
    <g fill="none" fill-rule="nonzero" transform="translate(11 7)">
        <use fill="#000" filter="url(#a)" xlink:href="#b"/>
        <use fill="url(#c)" fill-rule="evenodd" xlink:href="#b"/>
        <use fill="#000" filter="url(#d)" xlink:href="#b"/>
        <ellipse cx="26.98" cy="45.5" fill="#FFF" rx="4.18" ry="4.206"/>
    </g>
</svg>
